name D:\school\WTK\thesis\model\3dpredictsim\Results\MidTarsalJoint\Fal_s1_bCst_PF_Natali2010_ls150_MT_k300_MTP_Mu1_ig23.mot
datacolumns 128
datarows 4
range 0.00000000 0.03400559
endheader
time	pelvis_tilt	pelvis_list	pelvis_rotation	pelvis_tx	pelvis_ty	pelvis_tz	hip_flexion_l	hip_adduction_l	hip_rotation_l	hip_flexion_r	hip_adduction_r	hip_rotation_r	knee_angle_l	knee_angle_r	ankle_angle_l	ankle_angle_r	subtalar_angle_l	subtalar_angle_r	tmt_angle_l	tmt_angle_r	mtp_angle_l	mtp_angle_r	lumbar_extension	lumbar_bending	lumbar_rotation	arm_flex_l	arm_add_l	arm_rot_l	arm_flex_r	arm_add_r	arm_rot_r	elbow_flex_l	elbow_flex_r	pro_sup_l	pro_sup_r	glut_med1_l/activation	glut_med2_l/activation	glut_med3_l/activation	glut_min1_l/activation	glut_min2_l/activation	glut_min3_l/activation	semimem_l/activation	semiten_l/activation	bifemlh_l/activation	bifemsh_l/activation	sar_l/activation	add_long_l/activation	add_brev_l/activation	add_mag1_l/activation	add_mag2_l/activation	add_mag3_l/activation	tfl_l/activation	pect_l/activation	grac_l/activation	glut_max1_l/activation	glut_max2_l/activation	glut_max3_l/activation	iliacus_l/activation	psoas_l/activation	quad_fem_l/activation	gem_l/activation	peri_l/activation	rect_fem_l/activation	vas_med_l/activation	vas_int_l/activation	vas_lat_l/activation	med_gas_l/activation	lat_gas_l/activation	soleus_l/activation	tib_post_l/activation	flex_dig_l/activation	flex_hal_l/activation	tib_ant_l/activation	per_brev_l/activation	per_long_l/activation	per_tert_l/activation	ext_dig_l/activation	ext_hal_l/activation	ercspn_l/activation	intobl_l/activation	extobl_l/activation	glut_med1_r/activation	glut_med2_r/activation	glut_med3_r/activation	glut_min1_r/activation	glut_min2_r/activation	glut_min3_r/activation	semimem_r/activation	semiten_r/activation	bifemlh_r/activation	bifemsh_r/activation	sar_r/activation	add_long_r/activation	add_brev_r/activation	add_mag1_r/activation	add_mag2_r/activation	add_mag3_r/activation	tfl_r/activation	pect_r/activation	grac_r/activation	glut_max1_r/activation	glut_max2_r/activation	glut_max3_r/activation	iliacus_r/activation	psoas_r/activation	quad_fem_r/activation	gem_r/activation	peri_r/activation	rect_fem_r/activation	vas_med_r/activation	vas_int_r/activation	vas_lat_r/activation	med_gas_r/activation	lat_gas_r/activation	soleus_r/activation	tib_post_r/activation	flex_dig_r/activation	flex_hal_r/activation	tib_ant_r/activation	per_brev_r/activation	per_long_r/activation	per_tert_r/activation	ext_dig_r/activation	ext_hal_r/activation	ercspn_r/activation	intobl_r/activation	extobl_r/activation	
          0.00000000	         -2.93017651	         -2.24361725	          5.23463602	          0.00000000	          0.91997829	         -0.00192382	        -16.28194711	         -0.83102791	          7.10277400	         28.54746105	          3.66183721	         -3.01337193	         -9.40745378	         -9.96168445	         -2.60471746	          4.40884561	          7.47031562	         -3.59434351	          3.94297233	         -0.68029409	         14.96158320	          6.84889363	         -2.20554910	          0.60897512	         -2.01739782	          4.51032358	        -13.45963823	         15.95448388	         -5.46093070	        -13.45198244	          5.19836261	         36.68180847	         17.25382156	         86.51662706	         86.51662706	          0.27697544	          0.09612309	          0.06030165	          0.28954716	          0.19056058	          0.09990363	          0.05000059	          0.05000010	          0.05000007	          0.05305139	          0.10276878	          0.10221723	          0.09777908	          0.05000107	          0.05000141	          0.05000044	          0.30043350	          0.09689370	          0.05000061	          0.05000048	          0.05000040	          0.05000045	          0.38138740	          0.60154801	          0.05000011	          0.05000032	          0.05000026	          0.23732521	          0.05002886	          0.05002025	          0.06917719	          0.25577883	          0.35528143	          0.32457421	          0.27391000	          0.28592645	          0.37515901	          0.05000001	          0.05944547	          0.10217262	          0.05000006	          0.05000001	          0.05000008	          0.05000001	          0.05000629	          0.06582722	          0.05944599	          0.05944599	          0.05000005	          0.05944602	          0.05944601	          0.05943238	          0.15412655	          0.07414733	          0.18668911	          0.05000028	          0.05000007	          0.16414158	          0.34638658	          0.11661123	          0.22547728	          0.11087125	          0.05000007	          0.05019225	          0.13454213	          0.05000028	          0.05000035	          0.12473597	          0.05944603	          0.05002579	          0.34892992	          0.28215638	          0.13394688	          0.05000048	          0.13651889	          0.13365881	          0.12126072	          0.06537406	          0.06668057	          0.06211229	          0.05000001	          0.05946424	          0.05000017	          0.55274790	          0.26892195	          0.16680314	          0.19324145	          0.43740920	          0.05000011	          0.05652604	          0.10902146	          0.09694314	
          0.01133520	         -2.92780093	         -2.32332605	          5.48404127	          0.01727135	          0.91920948	         -0.00171971	        -16.11461253	         -1.11646829	          6.91523436	         27.81993710	          4.04469755	         -2.77661919	        -11.36640139	        -10.21559498	         -3.22877224	          3.73681190	          8.55084299	         -3.97563664	          2.97272730	         -0.75884273	         16.97705150	          6.91128927	         -1.99570180	          0.80542730	         -2.09179888	          4.15714790	        -13.47305445	         16.22497540	         -6.34849408	        -13.45055251	          4.92700496	         37.85416723	         16.91983160	         86.51662706	         86.51662706	          0.23296394	          0.08084910	          0.05071975	          0.24353802	          0.16028045	          0.08402891	          0.05000123	          0.05000038	          0.05000055	          0.05000004	          0.08643885	          0.19844250	          0.08224240	          0.05945382	          0.05944642	          0.05944621	          0.25269454	          0.09612042	          0.05001772	          0.05001555	          0.05045773	          0.05944603	          0.32078480	          0.56078778	          0.05944601	          0.05944593	          0.05000032	          0.19961414	          0.12936927	          0.13425198	          0.13570609	          0.21513545	          0.29882705	          0.27299921	          0.23038560	          0.24049280	          0.31554640	          0.05000000	          0.05000004	          0.11802258	          0.05000005	          0.05000002	          0.05000007	          0.06627493	          0.06823913	          0.06022824	          0.05000000	          0.05000001	          0.12111843	          0.05000003	          0.05000002	          0.05000002	          0.12963594	          0.06236533	          0.15702414	          0.05000014	          0.05944622	          0.13805944	          0.32347292	          0.35863042	          0.23255791	          0.11720703	          0.05000012	          0.08396607	          0.16169272	          0.06631516	          0.08946031	          0.13268085	          0.05000008	          0.05000036	          0.54775395	          0.23732161	          0.11266269	          0.05944608	          0.13792039	          0.14153845	          0.11522399	          0.06369840	          0.06756954	          0.05777056	          0.05633030	          0.05001543	          0.05898005	          0.54087881	          0.34619958	          0.21847232	          0.16253536	          0.36790484	          0.11765357	          0.05000000	          0.09169790	          0.08153883	
          0.02267040	         -2.92081721	         -2.40806504	          5.70172158	          0.03483866	          0.91843212	         -0.00154104	        -15.88401633	         -1.40393050	          6.71977761	         26.95553014	          4.30982273	         -2.50698901	        -13.41193935	        -10.58209796	         -4.01007904	          3.22386471	          9.60457046	         -4.37239851	          1.85371455	         -0.87294907	         19.13868301	          7.03547320	         -1.76471930	          1.01422019	         -2.15453981	          3.72180845	        -13.48406036	         16.41599675	         -7.25419993	        -13.46007939	          4.72738066	         39.01676983	         16.61837853	         86.51662706	         86.51662706	          0.33731395	          0.06800216	          0.05000004	          0.33679585	          0.13481189	          0.07067671	          0.05000066	          0.05000007	          0.05000005	          0.05000035	          0.07288111	          0.16690993	          0.06917409	          0.05000662	          0.05000051	          0.05000024	          0.27105912	          0.08084896	          0.05000034	          0.05000054	          0.05000029	          0.05000022	          0.26981204	          0.52625480	          0.05000007	          0.05000025	          0.05000010	          0.16789537	          0.10881246	          0.11291930	          0.11414235	          0.18095033	          0.25134329	          0.22961951	          0.19377723	          0.20227843	          0.26540599	          0.05848263	          0.09433199	          0.14133267	          0.05000010	          0.11285615	          0.05000016	          0.05995520	          0.05739590	          0.05065795	          0.26493093	          0.27325854	          0.33246052	          0.44318852	          0.27076349	          0.24224010	          0.11449194	          0.05245686	          0.13289524	          0.05944590	          0.05000054	          0.11612175	          0.27207293	          0.30164391	          0.19560444	          0.12345486	          0.05000018	          0.07062404	          0.13599977	          0.15282321	          0.07524561	          0.11159789	          0.05000047	          0.05000012	          0.46071559	          0.19961114	          0.24658306	          0.05000010	          0.11600487	          0.11904802	          0.09691493	          0.05357672	          0.05683275	          0.05000020	          0.05000002	          0.05000012	          0.05000015	          0.61399495	          0.36372566	          0.18375707	          0.43906727	          0.44501928	          0.11003038	          0.06677667	          0.11269110	          0.06858227	
          0.03400559	         -2.91122739	         -2.48563995	          5.88351098	          0.05247756	          0.91768110	         -0.00133734	        -15.55013920	         -1.68069611	          6.53940527	         26.04180802	          4.54390713	         -2.23290471	        -15.59114689	        -10.90975994	         -4.94557089	          2.83189550	         10.64062108	         -4.77699875	          0.61453648	         -0.83201329	         21.38031848	          7.23978746	         -1.53639646	          1.22157590	         -2.20686474	          3.24614801	        -13.50193637	         16.55647610	         -8.12858994	        -13.47178130	          4.60346314	         40.14176675	         16.32134353	         86.51662706	         86.51662706	          0.28371465	          0.05719661	          0.05000004	          0.28327888	          0.11339025	          0.05944618	          0.05000078	          0.05000008	          0.05000008	          0.05000004	          0.06130034	          0.16856812	          0.15567603	          0.05000056	          0.05000259	          0.05001301	          0.22798785	          0.06800607	          0.05000032	          0.05000088	          0.05000060	          0.05000045	          0.22693879	          0.46577172	          0.05000008	          0.05000028	          0.05000007	          0.14121672	          0.11877692	          0.11877689	          0.10417750	          0.15219723	          0.21140472	          0.19313286	          0.16298595	          0.17013632	          0.22323287	          0.13317845	          0.13626861	          0.11887496	          0.06350686	          0.20326262	          0.05000008	          0.08239787	          0.05000000	          0.05000001	          0.37219078	          0.37278778	          0.39665031	          0.37276574	          0.22773942	          0.26791856	          0.10407747	          0.09289669	          0.11580610	          0.05000037	          0.05000031	          0.09766996	          0.22884043	          0.25371265	          0.16452330	          0.16151702	          0.05000013	          0.05940207	          0.11438950	          0.24006219	          0.17304727	          0.14905735	          0.05000003	          0.05000004	          0.38750768	          0.16789286	          0.20740113	          0.05000003	          0.14066185	          0.14984253	          0.10629222	          0.05000001	          0.05000002	          0.05000000	          0.05000000	          0.05000018	          0.05000010	          0.68752972	          0.30593461	          0.15805753	          0.63479267	          0.46621525	          0.15191027	          0.08550139	          0.09478444	          0.05768452	
